<svg xmlns="http://www.w3.org/2000/svg" xmlns:xlink="http://www.w3.org/1999/xlink" viewBox="0,0,256,256" width="50px" height="50px"><g fill="#ffffff" fill-rule="nonzero" stroke="none" stroke-width="1" stroke-linecap="butt" stroke-linejoin="miter" stroke-miterlimit="10" stroke-dasharray="" stroke-dashoffset="0" font-family="none" font-weight="none" font-size="none" text-anchor="none" style="mix-blend-mode: normal"><g transform="scale(5.12,5.12)"><path d="M7.04297,14.41992c-2.508,0 -4.61448,1.76033 -5.14648,4.11133c-1.054,0.058 -1.89063,0.931 -1.89063,2v2.4375c0,1.025 0.76972,1.86928 1.76172,1.98828v4.77148c0,1.106 0.89595,2.00391 2.00195,2.00391h3.00977c0.563,0 1.0735,-0.23437 1.4375,-0.60937c0.364,0.375 0.87255,0.60938 1.43555,0.60938h3.01172c0.746,0 1.38842,-0.41258 1.73242,-1.01758c0.352,0.613 0.9918,1.01758 1.7168,1.01758h0.17383h2.36133h0.17383c0.847,0 1.60272,-0.53303 1.88672,-1.33203l0.29102,-0.80859c1.187,1.384 2.94425,2.26367 4.90625,2.26367h0.81445c1.248,0 2.42434,-0.37883 3.40234,-1.04883c0.367,0.445 0.91511,0.73438 1.53711,0.73438h3.01367c0.553,0 1.05302,-0.22489 1.41602,-0.58789c0.362,0.363 0.86397,0.58789 1.41797,0.58789h3.01172c1.106,0 2.00195,-0.89791 2.00195,-2.00391v-0.02539c0.574,1.425 1.96384,2.43555 3.58984,2.43555c2.137,0 3.875,-1.73895 3.875,-3.87695c0,-2.138 -1.74095,-3.87891 -3.87695,-3.87891c-0.412,0 -0.80183,0.08312 -1.17383,0.20313c0.448,-0.367 0.74023,-0.91797 0.74023,-1.54297v-2.51367c0,-1.093 -0.87675,-1.98295 -1.96875,-2.00195l-1.18164,-0.02148h-0.03516c-0.415,0 -0.81631,0.05978 -1.19531,0.17578c-0.239,-0.101 -0.50234,-0.1543 -0.77734,-0.1543h-2.68945l-1.14648,-0.02148h-0.00195c-0.426,0 -0.83761,0.06269 -1.22461,0.17969c-0.24,-0.102 -0.50325,-0.1582 -0.78125,-0.1582h-3.01367c-0.801,0 -1.48664,0.4733 -1.80664,1.1543c-1.026,-0.685 -2.25803,-1.08789 -3.58203,-1.08789h-0.36719c-0.921,0 -1.79584,0.19692 -2.58984,0.54492c-0.337,-0.26 -0.75389,-0.41992 -1.21289,-0.41992h-0.00586h-3.00977c-0.652,0 -1.24819,0.31431 -1.61719,0.82031c-0.37,-0.505 -0.96323,-0.82031 -1.61523,-0.82031h-3.01172c-0.027,0 -0.05403,0.00877 -0.08203,0.00977c-0.033,-0.002 -0.06466,-0.00977 -0.09766,-0.00977h-1.00781v-2.10547c0,-1.106 -0.89595,-2.00195 -2.00195,-2.00195zM7.04297,16.42188h2.60938v2.52344h-1.90039c-0.537,0 -0.97266,0.43566 -0.97266,0.97266v0.61133h2.87305h3.01172v2.43945v6.75977h-3.01172v-6.75977h-2.87305v6.75977h-3.00977v-6.75977h-1.76172v-2.4375h1.76172v-0.83398c0,-1.809 1.46544,-3.27539 3.27344,-3.27539zM42.48828,20.31445l1.18359,0.02148v2.51562h-1.49609c-0.916,0 -1.6582,0.74316 -1.6582,1.66016v3.05273v1.9707h-3.01172v-6.68555h-1.17578c-0.916,0 -1.6582,0.74316 -1.6582,1.66016v3.05273v1.97266h-3.01172v-9.19727h3.01172v1.41797c0.271,-0.774 0.96166,-1.43945 1.97266,-1.43945l1.18164,0.02148h2.68945v1.41797c0.272,-0.774 0.96166,-1.44141 1.97266,-1.44141zM25.90625,20.40625h0.36719c2.467,0 4.46675,2.0017 4.46875,4.4707v0.95117h-0.00195h-2.98633h-3.39844c0,0.058 0.00277,0.11392 0.00977,0.16992v0.00586h0.00195c0.087,0.776 0.749,1.46289 2,1.46289c1.108,0 1.42773,-0.91211 1.42773,-0.91211l2.65625,0.77539c-0.594,1.477 -2.03952,2.52148 -3.72852,2.52148h-0.81641c-2.467,0 -4.4668,-1.99975 -4.4668,-4.46875v-0.50586c0,-2.469 1.9998,-4.4707 4.4668,-4.4707zM12.84375,20.53125h3.01172l1.61523,5.31641l1.61719,-5.31641h3.00977l-3.27148,9.19727h-0.17578h-2.36133h-0.17383zM25.91016,22.56836c-0.836,0 -1.51378,0.65933 -1.55078,1.48633h3.39063c-0.036,-0.827 -0.71673,-1.48633 -1.55273,-1.48633zM46.10938,26.19336c1.034,0 1.87305,0.84 1.87305,1.875c-0.001,1.036 -0.83905,1.87305 -1.87305,1.87305c-1.034,0 -1.87109,-0.83805 -1.87109,-1.87305c0,-1.035 0.83709,-1.875 1.87109,-1.875z"></path></g></g></svg>